<svg width="30" height="30" viewBox="0 0 166.595 172" fill="none" xmlns="http://www.w3.org/2000/svg" xmlns:xlink="http://www.w3.org/1999/xlink">
	<desc>
			Created with Pixso.
	</desc>
	<defs>
		<filter id="filter_2_6_dd" x="0.000000" y="0.000000" width="166.595444" height="172.000000" filterUnits="userSpaceOnUse" color-interpolation-filters="sRGB">
			<feFlood flood-opacity="0" result="BackgroundImageFix"/>
			<feColorMatrix in="SourceAlpha" type="matrix" values="0 0 0 0 0 0 0 0 0 0 0 0 0 0 0 0 0 0 127 0" result="hardAlpha"/>
			<feOffset dx="0" dy="4"/>
			<feGaussianBlur stdDeviation="1.33333"/>
			<feComposite in2="hardAlpha" operator="out" k2="-1" k3="1"/>
			<feColorMatrix type="matrix" values="0 0 0 0 0 0 0 0 0 0 0 0 0 0 0 0 0 0 0.25 0"/>
			<feBlend mode="normal" in2="BackgroundImageFix" result="effect_dropShadow_1"/>
			<feBlend mode="normal" in="SourceGraphic" in2="effect_dropShadow_1" result="shape"/>
		</filter>
		<filter id="filter_2_7_dd" x="34.281250" y="42.750000" width="103.656250" height="85.117188" filterUnits="userSpaceOnUse" color-interpolation-filters="sRGB">
			<feFlood flood-opacity="0" result="BackgroundImageFix"/>
			<feColorMatrix in="SourceAlpha" type="matrix" values="0 0 0 0 0 0 0 0 0 0 0 0 0 0 0 0 0 0 127 0" result="hardAlpha"/>
			<feOffset dx="0" dy="4"/>
			<feGaussianBlur stdDeviation="1.33333"/>
			<feComposite in2="hardAlpha" operator="out" k2="-1" k3="1"/>
			<feColorMatrix type="matrix" values="0 0 0 0 0 0 0 0 0 0 0 0 0 0 0 0 0 0 0.25 0"/>
			<feBlend mode="normal" in2="BackgroundImageFix" result="effect_dropShadow_1"/>
			<feBlend mode="normal" in="SourceGraphic" in2="effect_dropShadow_1" result="shape"/>
		</filter>
	</defs>
	<g filter="url(#filter_2_6_dd)">
		<path id="矢量 1" d="M86 0C40.7126 0 4 36.7126 4 82C4 127.287 40.7126 164 86 164C114.81 164 140.15 149.142 154.775 126.672C146.222 133.154 135.56 137 124 137C95.8335 137 73 114.167 73 86C73 57.8335 95.8335 35 124 35C139.421 35 153.244 41.8444 162.595 52.6612C150.792 21.8645 120.949 0 86 0Z" fill="#2A82E4" fill-opacity="1.000000" fill-rule="evenodd"/>
	</g>
	<g filter="url(#filter_2_7_dd)">
		<path id="知" d="M96.6328 54.0391L93.4453 50.3828L129.938 50.3828L120.727 115.867L87.8906 115.867L96.6328 54.0391ZM69.3516 52.2109L91.4297 52.2109L90.0938 61.3281L83.6719 61.3281L78.0938 74.1016L90.1875 74.1016L88.8516 83.2188L74.0625 83.2188L72.4219 86.875L79.2422 86.875L86.0625 115.867L69.6562 115.867L66.1875 101.078L59.6719 115.867L42.2812 115.867L56.6953 83.2188L45.0703 83.2188L46.4062 74.1016L60.7266 74.1016L66.375 61.3281L64.7578 61.3281L61.9688 66.8125L47.3672 66.8125L56.2031 49.4219L53.9062 46.75L72.1406 46.75L69.3516 52.2109ZM107.461 106.938L114.094 59.5234L110.438 59.5234L103.828 106.938L107.461 106.938Z" fill="#0C98F5" fill-opacity="1.000000" fill-rule="evenodd"/>
	</g>
	<path id="知" d="M96.6328 54.0391L93.4453 50.3828L129.938 50.3828L120.727 115.867L87.8906 115.867L96.6328 54.0391ZM69.3516 52.2109L91.4297 52.2109L90.0938 61.3281L83.6719 61.3281L78.0938 74.1016L90.1875 74.1016L88.8516 83.2188L74.0625 83.2188L72.4219 86.875L79.2422 86.875L86.0625 115.867L69.6562 115.867L66.1875 101.078L59.6719 115.867L42.2812 115.867L56.6953 83.2188L45.0703 83.2188L46.4062 74.1016L60.7266 74.1016L66.375 61.3281L64.7578 61.3281L61.9688 66.8125L47.3672 66.8125L56.2031 49.4219L53.9062 46.75L72.1406 46.75L69.3516 52.2109ZM107.461 106.938L114.094 59.5234L110.438 59.5234L103.828 106.938L107.461 106.938Z" stroke="#EBEAEA" stroke-opacity="1.000000" stroke-width="4.000000"/>
</svg>
