<?xml version="1.0" standalone="no"?><!DOCTYPE svg PUBLIC "-//W3C//DTD SVG 1.1//EN"
        "http://www.w3.org/Graphics/SVG/1.1/DTD/svg11.dtd">
<svg t="1711072117376" class="icon" viewBox="0 0 1024 1024" version="1.1" xmlns="http://www.w3.org/2000/svg"
     p-id="22899" xmlns:xlink="http://www.w3.org/1999/xlink" width="16" height="16">
    <path d="M487.6 921.9c-26.3 0-51-10.2-69.6-28.9L131 606.2c-18.6-18.5-28.9-43.3-28.9-69.7 0-26.4 10.2-51.1 28.8-69.6l335.9-336c18.1-18.1 42.2-28.3 67.8-28.7h0.6c2.7 0 6.3 0 10.5 0.5L811 126.3c47.9 4.2 85.5 42.1 89.4 90l21.3 263c2.3 28.7-8 56.9-28.3 77.5l-0.2 0.2-336.1 336.1c-18.1 18.1-42.2 28.3-67.8 28.7-0.6 0.1-1.1 0.1-1.7 0.1z m48-749.8c-7.4 0.2-14.1 3-19.3 8.2l-335.9 336c-5.3 5.3-8.3 12.5-8.3 20.2 0 7.8 2.9 14.7 8.2 20l0.1 0.1 287 286.9c5.5 5.5 12.9 8.5 20.6 8.4 7.5-0.1 14.3-3 19.6-8.3l336-336c5.9-6.1 8.9-14.3 8.3-22.6l-21.3-263c-1.1-13.8-12-24.7-25.8-26l-266-23.8c-0.4 0-0.8-0.1-1.2-0.1h-2z m1.9 0z"
          fill="#6c707e" p-id="22900"></path>
    <path d="M674.5 450.5c-55.7 0-101.1-45.4-101.1-101.1s45.4-101.1 101.1-101.1 101.1 45.4 101.1 101.1-45.4 101.1-101.1 101.1z m0-132.2c-17.1 0-31.1 14-31.1 31.1s14 31.1 31.1 31.1 31.1-14 31.1-31.1-14-31.1-31.1-31.1z"
          fill="#6c707e" p-id="22901"></path>
</svg>