<svg width="16.000000" height="16.000000" viewBox="0 0 16 16" fill="none" xmlns="http://www.w3.org/2000/svg" xmlns:xlink="http://www.w3.org/1999/xlink">
	<desc>
			Created with Pixso.
	</desc>
	<defs>
		<clipPath id="clip58_112">
			<rect id="material-symbols--air-freshener-outline" width="16.000000" height="16.000000" fill="white" fill-opacity="0"/>
		</clipPath>
	</defs>
	<g clip-path="url(#clip58_112)">
		<path id="path" d="M8 3.33C7.81 3.33 7.65 3.26 7.52 3.14C7.39 3.01 7.33 2.85 7.33 2.66C7.33 2.47 7.39 2.32 7.52 2.19C7.65 2.06 7.81 2 8 2C8.18 2 8.34 2.06 8.47 2.19C8.6 2.32 8.66 2.47 8.66 2.66C8.66 2.85 8.6 3.01 8.47 3.14C8.34 3.27 8.18 3.33 8 3.33ZM8 1.33C7.81 1.33 7.65 1.26 7.52 1.14C7.39 1.01 7.33 0.85 7.33 0.66C7.33 0.47 7.39 0.32 7.52 0.19C7.65 0.06 7.81 0 8 0C8.18 0 8.34 0.06 8.47 0.19C8.6 0.32 8.66 0.47 8.66 0.66C8.66 0.85 8.6 1.01 8.47 1.14C8.34 1.27 8.18 1.33 8 1.33ZM5.59 14.66C4.88 14.24 4.33 13.67 3.93 12.96C3.53 12.25 3.33 11.48 3.33 10.66C3.33 9.76 3.57 8.93 4.04 8.17C4.52 7.41 5.17 6.83 6 6.45L6 4.66C6 4.47 6.06 4.31 6.19 4.19C6.32 4.06 6.47 4 6.66 4L9.33 4C9.52 4 9.68 4.06 9.8 4.19C9.93 4.32 10 4.47 10 4.66L10 6.45C10.81 6.83 11.45 7.41 11.94 8.17C12.42 8.93 12.66 9.76 12.66 10.66C12.66 11.48 12.46 12.25 12.06 12.96C11.66 13.67 11.11 14.24 10.4 14.66L5.59 14.66ZM6 13.33L10 13.33C10.42 13.01 10.75 12.61 10.98 12.15C11.21 11.69 11.33 11.19 11.33 10.66C11.33 10.02 11.16 9.43 10.82 8.89C10.48 8.35 10.02 7.94 9.43 7.66L8.66 7.29L8.66 5.33L7.33 5.33L7.33 7.29L6.56 7.66C5.97 7.94 5.51 8.35 5.17 8.89C4.83 9.43 4.66 10.02 4.66 10.66C4.66 11.2 4.78 11.69 5.01 12.15C5.25 12.62 5.57 13.01 6 13.33ZM4.66 2C4.47 2 4.31 1.93 4.19 1.8C4.06 1.67 4 1.52 4 1.33C3.99 1.14 4.06 0.98 4.19 0.85C4.32 0.73 4.47 0.66 4.66 0.66C4.85 0.66 5.01 0.73 5.14 0.85C5.27 0.98 5.33 1.14 5.33 1.33C5.33 1.52 5.26 1.68 5.14 1.8C5.01 1.93 4.85 2 4.66 2ZM11.33 2C11.14 2 10.98 1.93 10.85 1.8C10.73 1.67 10.66 1.52 10.66 1.33C10.66 1.14 10.73 0.98 10.85 0.85C10.98 0.73 11.14 0.66 11.33 0.66C11.52 0.66 11.67 0.73 11.8 0.85C11.93 0.98 12 1.14 12 1.33C11.99 1.52 11.93 1.68 11.8 1.8C11.68 1.93 11.52 2 11.33 2ZM6 3.33C5.81 3.33 5.65 3.26 5.52 3.14C5.39 3.01 5.33 2.85 5.33 2.66C5.33 2.47 5.39 2.32 5.52 2.19C5.65 2.06 5.81 2 6 2C6.18 2 6.34 2.06 6.47 2.19C6.6 2.32 6.66 2.47 6.66 2.66C6.66 2.85 6.6 3.01 6.47 3.14C6.34 3.27 6.18 3.33 6 3.33ZM10 3.33C9.81 3.33 9.65 3.26 9.52 3.14C9.39 3.01 9.33 2.85 9.33 2.66C9.33 2.47 9.39 2.32 9.52 2.19C9.65 2.06 9.81 2 10 2C10.18 2 10.34 2.06 10.47 2.19C10.6 2.32 10.66 2.47 10.66 2.66C10.66 2.85 10.6 3.01 10.47 3.14C10.34 3.27 10.18 3.33 10 3.33Z" fill="#C4C4C4" fill-opacity="1.000000" fill-rule="nonzero"/>
	</g>
</svg>
