<svg width="16.000000" height="16.000000" viewBox="0 0 16 16" fill="none" xmlns="http://www.w3.org/2000/svg" xmlns:xlink="http://www.w3.org/1999/xlink">
	<desc>
			Created with Pixso.
	</desc>
	<defs>
		<clipPath id="clip60_3">
			<rect id="bx--at" width="16.000000" height="16.000000" fill="white" fill-opacity="0"/>
		</clipPath>
	</defs>
	<g clip-path="url(#clip60_3)">
		<path id="path" d="M8 1.33C4.32 1.33 1.33 4.32 1.33 8C1.33 11.67 4.32 14.66 8 14.66C8.97 14.66 9.97 14.41 10.96 13.93L10.37 12.73C9.56 13.13 8.77 13.33 8 13.33C5.05 13.33 2.66 10.94 2.66 8C2.66 5.05 5.05 2.66 8 2.66C10.94 2.66 13.33 5.05 13.33 8L13.33 8.66C13.33 9.12 13.12 10 12.33 10C11.4 10 11.33 8.78 11.33 8.66L11.33 5.33L10 5.33C9.41 4.88 8.74 4.66 8 4.66C6.16 4.66 4.66 6.16 4.66 8C4.66 9.83 6.16 11.33 8 11.33C8.96 11.33 9.83 10.91 10.44 10.25C10.79 10.84 11.38 11.33 12.33 11.33C13.84 11.33 14.66 9.95 14.66 8.66L14.66 8C14.66 4.32 11.67 1.33 8 1.33ZM8 10C6.89 10 6 9.1 6 8C6 6.89 6.89 6 8 6C9.1 6 10 6.89 10 8C10 9.1 9.1 10 8 10Z" fill="#C4C4C4" fill-opacity="1.000000" fill-rule="nonzero"/>
	</g>
</svg>
