<svg width="18" height="18" viewBox="0 0 16 16" fill="none" xmlns="http://www.w3.org/2000/svg" xmlns:xlink="http://www.w3.org/1999/xlink">
	<desc>
			Created with Pixso.
	</desc>
	<defs>
		<clipPath id="clip30_24">
			<rect id="笔刷-03.svg" width="9.000000" height="9.000000" transform="translate(3.399994 3.700012)" fill="white" fill-opacity="0"/>
		</clipPath>
		<clipPath id="clip30_22">
			<rect id="brush_dark" width="16.000000" height="16.000000" fill="white" fill-opacity="0"/>
		</clipPath>
	</defs>
	<g clip-path="url(#clip30_22)">
		<circle id="circle" cx="8.000000" cy="8.000000" r="6.500000" stroke="#CED0D6" stroke-opacity="1.000000" stroke-width="1.000000"/>
		<g clip-path="url(#clip30_24)">
			<mask id="mask30_26" mask-type="alpha" maskUnits="userSpaceOnUse" x="3.399994" y="3.700012" width="9.000000" height="9.000000">
				<path id="路径" d="M3.39999 3.70001L12.4 3.70001L12.4 12.7L3.39999 12.7L3.39999 3.70001Z" fill="#C4C4C4" fill-opacity="1.000000" fill-rule="evenodd"/>
			</mask>
			<g mask="url(#mask30_26)">
				<path id="路径" d="M4.29996 10.3414L4.6636 10.7051L5.39493 11.4364L5.75858 11.8001C5.83163 11.8731 5.88382 11.9246 5.91531 11.9547C5.97006 12.0068 6.01767 12.0488 6.0585 12.0805C6.1777 12.1733 6.29947 12.2234 6.4238 12.2309C6.57504 12.2366 6.73508 12.1848 6.89804 12.0751C7.01358 11.9973 7.13681 11.8871 7.26775 11.7444C7.36772 11.6355 7.47704 11.5021 7.59568 11.3444C7.66341 11.2543 7.75716 11.1245 7.87693 10.9549C7.99742 10.7841 8.0767 10.6765 8.11423 10.6323L7.68576 10.2678C7.63723 10.3249 7.54768 10.4459 7.41734 10.6306C7.30086 10.7954 7.21059 10.9206 7.14615 11.0062C7.03848 11.1494 6.94089 11.2687 6.85318 11.3641C6.75229 11.474 6.66257 11.5555 6.58383 11.6085C6.54831 11.6325 6.51645 11.6496 6.48862 11.6599C6.47104 11.6663 6.45749 11.6693 6.44815 11.6689C6.43039 11.668 6.33316 11.5792 6.15628 11.4024L5.99057 11.2367L6.23978 10.9855L5.84024 10.5895L5.59286 10.8389L5.26016 10.5063L5.95761 9.8089L5.55991 9.41113L4.86246 10.1085L4.69766 9.94366C4.52097 9.76691 4.43198 9.66815 4.43088 9.64734C4.44113 9.61945 4.4675 9.55176 4.49149 9.51617C4.54459 9.43744 4.62589 9.34766 4.73593 9.24677C4.83133 9.15924 4.95071 9.06152 5.0939 8.9538C5.17941 8.8894 5.30466 8.79901 5.46945 8.68274C5.65421 8.55231 5.77505 8.46283 5.83218 8.41425L5.4678 7.98578C5.42349 8.02344 5.31601 8.10254 5.14499 8.22321C4.97562 8.34277 4.84579 8.43652 4.75571 8.50433C4.59787 8.62305 4.46457 8.73236 4.35562 8.83234C4.21298 8.9632 4.10275 9.08643 4.02493 9.20203C3.91525 9.36487 3.86325 9.52344 3.86911 9.67767C3.8757 9.80005 3.92587 9.92133 4.01944 10.0416C4.0513 10.0823 4.09323 10.13 4.14542 10.1847C4.17545 10.2162 4.2269 10.2684 4.29996 10.3414ZM4.86246 10.1085L4.6636 10.3074L4.86246 10.5063L5.06131 10.7051L5.26016 10.5063L5.06131 10.3074L4.86246 10.1085ZM5.59286 10.8389L5.39401 11.0395L5.79337 11.4355L5.99057 11.2367L5.79263 11.0386L5.59286 10.8389Z" fill="#CED0D6" fill-opacity="1.000000" fill-rule="evenodd"/>
				<path id="路径" d="" fill="#000000" fill-opacity="1.000000" fill-rule="evenodd"/>
			</g>
			<mask id="mask30_31" mask-type="alpha" maskUnits="userSpaceOnUse" x="3.399994" y="3.700012" width="9.000000" height="9.000000">
				<path id="路径" d="M3.39999 3.70001L12.4 3.70001L12.4 12.7L3.39999 12.7L3.39999 3.70001Z" fill="#C4C4C4" fill-opacity="1.000000" fill-rule="evenodd"/>
			</mask>
			<g mask="url(#mask30_31)">
				<path id="路径" d="M8.62746 10.6301C8.70621 10.5438 8.76628 10.4725 8.81132 10.3975C9.21999 9.73376 8.83382 8.8938 9.21249 8.22632C9.64757 7.4538 10.4538 6.77881 11.1776 6.13757C11.485 5.86383 11.6425 5.72882 11.65 5.53381C11.665 5.18878 10.9112 4.43506 10.5662 4.45007C10.3712 4.45758 10.2362 4.61505 9.96249 4.92255C9.32124 5.6463 8.64632 6.44879 7.87382 6.88757C7.20621 7.2663 6.3663 6.88007 5.70255 7.28876C5.62747 7.3338 5.55624 7.39001 5.47 7.47253C5.34256 7.59253 5.27499 7.65253 5.27499 7.73126C5.27499 7.81378 5.33871 7.87756 5.46616 8.00507L8.09117 10.6338C8.22246 10.7613 8.28617 10.825 8.36874 10.825C8.44749 10.825 8.50753 10.7576 8.62746 10.6301Z" stroke="#CED0D6" stroke-opacity="1.000000" stroke-width="0.800000" stroke-linejoin="round" stroke-dasharray="0 0"/>
			</g>
		</g>
	</g>
</svg>
