<svg width="15.000000" height="15.000000" viewBox="0 0 15 15" fill="none" xmlns="http://www.w3.org/2000/svg" xmlns:xlink="http://www.w3.org/1999/xlink">
	<desc>
			Created with Pixso.
	</desc>
	<defs/>
	<mask id="mask13_49" mask-type="alpha" maskUnits="userSpaceOnUse" x="0.000000" y="0.000000" width="15.000000" height="15.000000">
		<path id="路径" d="M0 0L15 0L15 15L0 15L0 0Z" fill="#C4C4C4" fill-opacity="1.000000" fill-rule="evenodd"/>
	</mask>
	<g mask="url(#mask13_49)">
		<path id="路径" d="M7.5 13.75C4.04785 13.75 1.25 10.9517 1.25 7.5C1.25 4.04834 4.04785 1.25 7.5 1.25C10.9521 1.25 13.75 4.04834 13.75 7.5C13.75 10.9517 10.9521 13.75 7.5 13.75Z" stroke="#C4C4C4" stroke-opacity="1.000000" stroke-width="1.500000" stroke-dasharray="0 0"/>
	</g>
	<g mask="url(#mask13_49)">
		<mask id="mask_13_51" fill="white">
			<path id="路径" d="M10.2939 5.6687C10.0371 5.2937 9.72461 4.9624 9.375 4.6875L10.2939 5.6687ZM4.6875 9.37549C4.9375 9.73169 5.2373 10.0505 5.58105 10.3193L4.6875 9.37549Z" clip-rule="evenodd" fill="" fill-opacity="1.000000" fill-rule="evenodd"/>
		</mask>
		<path id="路径" d="M10.0488 6.15723Q9.70508 5.65527 9.22461 5.27734L9.6875 4.6875L10.2354 4.1748L11.2148 5.22168L10.668 5.73413L10.0488 6.15723ZM11.2871 5.31104L10.1201 6.24683L9.13965 5.2002L10.1514 4.09766Q10.8135 4.61841 11.2871 5.31104ZM5.30176 9.25732Q5.64355 9.74487 6.10254 10.104L5.64062 10.6948L5.09668 11.2104L4.14258 10.2039L4.6875 9.68799L5.30176 9.25732ZM4.07324 10.1189L5.23242 9.17236L6.18555 10.179L5.17871 11.2856Q4.54395 10.7893 4.07324 10.1189Z" fill="#C4C4C4" fill-opacity="1.000000" fill-rule="nonzero"/>
	</g>
	<g mask="url(#mask13_49)">
		<path id="路径" d="M7.5 5.9375C6.63672 5.9375 5.9375 6.63696 5.9375 7.5C5.9375 8.36304 6.63672 9.0625 7.5 9.0625C8.36328 9.0625 9.0625 8.36304 9.0625 7.5C9.0625 6.63696 8.36328 5.9375 7.5 5.9375Z" stroke="#C4C4C4" stroke-opacity="1.000000" stroke-width="1.500000" stroke-dasharray="0 0"/>
	</g>
</svg>
