<svg width="16.000000" height="16.000000" viewBox="0 0 16 16" fill="none" xmlns="http://www.w3.org/2000/svg" xmlns:xlink="http://www.w3.org/1999/xlink">
	<desc>
			Created with Pixso.
	</desc>
	<defs>
		<clipPath id="clip63_3">
			<rect id="ri--contrast-fill" width="16.000000" height="16.000000" fill="white" fill-opacity="0"/>
		</clipPath>
	</defs>
	<g clip-path="url(#clip63_3)">
		<path id="path" d="M8 14.66C4.31 14.66 1.33 11.68 1.33 7.99C1.33 4.31 4.31 1.33 8 1.33C11.68 1.33 14.66 4.31 14.66 7.99C14.66 11.68 11.68 14.66 8 14.66ZM8 13.33L8 2.66C7.29 2.66 6.61 2.79 5.95 3.07C5.3 3.34 4.72 3.72 4.22 4.22C3.72 4.72 3.34 5.3 3.07 5.95C2.8 6.61 2.66 7.29 2.66 7.99C2.66 8.7 2.8 9.38 3.07 10.03C3.34 10.69 3.72 11.26 4.22 11.76C4.72 12.26 5.3 12.65 5.95 12.92C6.61 13.19 7.29 13.33 8 13.33Z" fill="#C4C4C4" fill-opacity="1.000000" fill-rule="nonzero"/>
	</g>
</svg>
