<svg width="16.000000" height="16.000000" viewBox="0 0 16 16" fill="none" xmlns="http://www.w3.org/2000/svg" xmlns:xlink="http://www.w3.org/1999/xlink">
	<desc>
			Created with Pixso.
	</desc>
	<defs>
		<clipPath id="clip58_71">
			<rect id="material-symbols--eco-outline" width="16.000000" height="16.000000" fill="white" fill-opacity="0"/>
		</clipPath>
	</defs>
	<g clip-path="url(#clip58_71)">
		<path id="path" d="M3.59 13.06C3.09 12.56 2.7 11.98 2.42 11.33C2.14 10.67 1.99 10 2 9.29C2 8.6 2.13 7.9 2.4 7.22C2.66 6.54 3.09 5.9 3.7 5.29C4.08 4.91 4.56 4.57 5.14 4.29C5.71 4.02 6.39 3.8 7.17 3.64C7.95 3.48 8.85 3.38 9.85 3.35C10.86 3.31 11.98 3.35 13.23 3.46C13.32 4.64 13.35 5.72 13.31 6.71C13.28 7.7 13.19 8.59 13.04 9.39C12.89 10.18 12.68 10.88 12.4 11.47C12.13 12.06 11.8 12.56 11.4 12.96C10.81 13.55 10.18 13.98 9.52 14.25C8.86 14.53 8.18 14.66 7.5 14.66C6.77 14.66 6.07 14.52 5.38 14.24C4.69 13.95 4.09 13.56 3.59 13.06ZM5.46 12.8C5.78 12.98 6.11 13.12 6.45 13.2C6.79 13.29 7.14 13.33 7.5 13.33C8.01 13.33 8.51 13.23 9.01 13.02C9.51 12.82 9.99 12.48 10.45 12.03C10.65 11.83 10.85 11.55 11.05 11.19C11.26 10.83 11.44 10.35 11.59 9.77C11.74 9.19 11.85 8.48 11.93 7.65C12.01 6.83 12.02 5.84 11.96 4.7C11.42 4.67 10.8 4.66 10.12 4.67C9.44 4.68 8.76 4.73 8.08 4.83C7.4 4.93 6.76 5.09 6.15 5.31C5.53 5.53 5.03 5.84 4.65 6.23C4.15 6.73 3.8 7.22 3.61 7.71C3.42 8.2 3.33 8.67 3.33 9.13C3.33 9.78 3.45 10.36 3.7 10.85C3.95 11.35 4.17 11.7 4.36 11.9C4.83 11.01 5.45 10.15 6.21 9.34C6.98 8.52 7.87 7.85 8.9 7.33C8.09 8.03 7.4 8.82 6.8 9.7C6.21 10.59 5.76 11.62 5.46 12.8Z" fill="#C4C4C4" fill-opacity="1.000000" fill-rule="nonzero"/>
	</g>
</svg>
