<svg width="18" height="18" viewBox="0 0 16 16" fill="none" xmlns="http://www.w3.org/2000/svg" xmlns:xlink="http://www.w3.org/1999/xlink">
	<desc>
			Created with Pixso.
	</desc>
	<defs>
		<clipPath id="clip27_5">
			<rect id="edit.svg" width="9.000000" height="9.000000" transform="translate(3.600006 3.000000)" fill="white" fill-opacity="0"/>
		</clipPath>
		<clipPath id="clip27_13">
			<rect id="edit" width="16.000000" height="16.000000" fill="white" fill-opacity="0"/>
		</clipPath>
	</defs>
	<g clip-path="url(#clip27_13)">
		<circle id="circle" cx="8.000000" cy="8.000000" r="6.500000" stroke="#6C707E" stroke-opacity="1.000000" stroke-width="1.000000"/>
		<g clip-path="url(#clip27_5)">
			<mask id="mask27_9" mask-type="alpha" maskUnits="userSpaceOnUse" x="3.600006" y="3.000000" width="9.000000" height="9.000000">
				<rect id="path_0" x="3.600006" y="3.000000" width="9.000000" height="9.000000" fill="#FFFFFF" fill-opacity="1.000000"/>
			</mask>
			<g mask="url(#mask27_9)">
				<path id="Vector" d="M8.60881 4.24493C8.46481 4.31091 8.3508 4.4129 8.25481 4.51489C8.16481 4.61688 8.06281 4.74292 7.94881 4.89288L5.28481 8.30688C5.16481 8.46893 5.0388 8.61292 4.97281 8.7569C4.91281 8.87689 4.8708 9.00293 4.84081 9.13495C4.81081 9.29095 4.81081 9.45294 4.81081 9.65094L4.81081 10.317C4.81081 10.4069 4.81081 10.4969 4.8228 10.575C4.82881 10.6589 4.8468 10.7789 4.91881 10.8929C5.0088 11.0309 5.14081 11.1389 5.30281 11.1929C5.4288 11.2289 5.54881 11.2229 5.63281 11.2109C5.7108 11.1989 5.80081 11.1749 5.88481 11.1569L6.4968 11.0009C6.6888 10.9529 6.88081 10.9109 7.0248 10.8389C7.14481 10.7849 7.2588 10.7069 7.36079 10.6229C7.4808 10.5209 7.57681 10.395 7.7028 10.239L10.3908 6.79492C10.4988 6.65094 10.6008 6.51892 10.6728 6.41089C10.7568 6.28491 10.8228 6.15289 10.8588 5.99689C10.9008 5.76294 10.8708 5.52289 10.7688 5.30688C10.7028 5.15692 10.6008 5.04889 10.4928 4.9469C10.3968 4.85693 10.2708 4.75488 10.1208 4.64691C9.97681 4.53894 9.8268 4.4129 9.7128 4.34088C9.5928 4.2569 9.4608 4.19092 9.2988 4.15491C9.0648 4.11292 8.8248 4.14288 8.60881 4.24493ZM8.8728 5.09088C8.81281 5.15692 8.7408 5.24689 8.6328 5.38489L9.7428 6.2489C9.8508 6.1109 9.92281 6.02094 9.97079 5.94293C10.0188 5.87091 10.0248 5.84088 10.0248 5.8349C10.0368 5.7749 10.0308 5.7149 10.0068 5.66089C10.0008 5.65491 9.9888 5.63092 9.92281 5.57092C9.8508 5.50488 9.75481 5.42694 9.5928 5.3009C9.4308 5.17493 9.32881 5.09692 9.25079 5.04291C9.17281 4.99493 9.1488 4.98889 9.14281 4.98291C9.08279 4.97693 9.0228 4.98291 8.9688 5.0069C8.9628 5.0069 8.9388 5.0249 8.8728 5.09088ZM5.95081 8.82294C5.7948 9.02094 5.75281 9.07495 5.72881 9.13495C5.69881 9.1889 5.6808 9.24292 5.66881 9.30292C5.6568 9.36292 5.6568 9.43494 5.6568 9.68091L5.6568 10.299L6.2928 10.1849C6.5388 10.1249 6.60481 10.1069 6.65881 10.0769C6.7128 10.0529 6.7668 10.0169 6.8148 9.98096C6.86281 9.9389 6.9048 9.88495 7.05481 9.68695L9.22079 6.91492L8.11681 6.0509L5.95081 8.82294ZM8.0508 10.8749C8.0508 11.1089 8.2428 11.2949 8.47681 11.2949L11.0988 11.2949C11.3328 11.2949 11.5248 11.1089 11.5248 10.8749C11.5248 10.6409 11.3328 10.455 11.0988 10.455L8.47681 10.455C8.2428 10.455 8.0508 10.6409 8.0508 10.8749Z" fill="#6C707E" fill-opacity="1.000000" fill-rule="evenodd"/>
			</g>
		</g>
	</g>
</svg>
