<svg width="16.000000" height="16.000000" viewBox="0 0 16 16" fill="none" xmlns="http://www.w3.org/2000/svg" xmlns:xlink="http://www.w3.org/1999/xlink">
	<desc>
		Created with Pixso.
	</desc>
	<defs>
		<clipPath id="clip59_126">
			<rect id="material-symbols--expand-circle-down-outline" width="16.000000" height="16.000000" fill="white" fill-opacity="0"/>
		</clipPath>
	</defs>
	<g clip-path="url(#clip59_126)">
		<path id="path" d="M8 10.33L11 7.33L10.05 6.4L8 8.45L5.94 6.4L5 7.33L8 10.33ZM8 14.66C7.07 14.66 6.21 14.49 5.39 14.14C4.58 13.79 3.88 13.31 3.28 12.71C2.68 12.11 2.2 11.41 1.85 10.6C1.5 9.78 1.33 8.92 1.33 8C1.33 7.07 1.5 6.21 1.85 5.4C2.2 4.58 2.68 3.88 3.28 3.28C3.88 2.68 4.58 2.2 5.39 1.85C6.21 1.5 7.07 1.33 8 1.33C8.92 1.33 9.78 1.5 10.6 1.85C11.41 2.2 12.11 2.68 12.71 3.28C13.31 3.88 13.79 4.58 14.14 5.4C14.49 6.21 14.66 7.07 14.66 8C14.66 8.92 14.49 9.78 14.14 10.6C13.79 11.41 13.31 12.11 12.71 12.71C12.11 13.31 11.41 13.79 10.6 14.14C9.78 14.49 8.92 14.66 8 14.66ZM8 13.33C9.48 13.33 10.75 12.81 11.78 11.78C12.81 10.75 13.33 9.48 13.33 8C13.33 6.51 12.81 5.25 11.78 4.21C10.75 3.18 9.48 2.66 8 2.66C6.51 2.66 5.25 3.18 4.21 4.21C3.18 5.25 2.66 6.51 2.66 8C2.66 9.48 3.18 10.75 4.21 11.78C5.25 12.81 6.51 13.33 8 13.33Z" fill="#6C707E" fill-opacity="1.000000" fill-rule="nonzero"/>
	</g>
</svg>
