<svg width="16.000000" height="16.000000" viewBox="0 0 16 16" fill="none" xmlns="http://www.w3.org/2000/svg" xmlns:xlink="http://www.w3.org/1999/xlink">
	<desc>
			Created with Pixso.
	</desc>
	<defs>
		<clipPath id="clip8_38">
			<rect id="failed" width="16.000000" height="16.000000" fill="white" fill-opacity="0"/>
		</clipPath>
	</defs>
	<g clip-path="url(#clip8_38)">
		<circle id="circle" cx="8.000000" cy="8.000000" r="6.500000" fill="#FFF7F7" fill-opacity="1.000000"/>
		<circle id="circle" cx="8.000000" cy="8.000000" r="6.500000" stroke="#DB3B4B" stroke-opacity="1.000000" stroke-width="1.000000"/>
		<path id="x" d="M7.2691 7.80884L4.75861 11.5L6.35822 11.5L7.76105 9.35449Q7.86578 9.19897 7.96417 9.00537Q8.06256 8.80859 8.11334 8.69116Q8.16412 8.80859 8.25616 9.00537Q8.34821 9.19897 8.43707 9.35449L9.83038 11.5L11.4395 11.5L8.94489 7.82153L11.2967 4.34937L9.68756 4.34937L8.42438 6.32666Q8.33551 6.48218 8.24347 6.65991Q8.15143 6.83447 8.11334 6.94873Q8.06256 6.83447 7.97052 6.65991Q7.87848 6.48218 7.78644 6.32666L6.52643 4.34937L4.91412 4.34937L7.2691 7.80884Z" fill="#DB3B4B" fill-opacity="1.000000" fill-rule="evenodd"/>
	</g>
</svg>
