<svg width="16.000000" height="16.000000" viewBox="0 0 16 16" fill="none" xmlns="http://www.w3.org/2000/svg" xmlns:xlink="http://www.w3.org/1999/xlink">
	<desc>
			Created with Pixso.
	</desc>
	<defs>
		<clipPath id="clip45_13">
			<rect id="favorites.svg" width="16.000000" height="16.000000" fill="white" fill-opacity="0"/>
		</clipPath>
	</defs>
	<g clip-path="url(#clip45_13)">
		<path id="path" d="M14.97 6.31C14.92 6.14 14.79 6.02 14.62 6L10.31 5.34L8.39 1.25C8.31 1.09 8.16 1 8 1C7.83 1 7.68 1.09 7.6 1.25L5.68 5.34L1.37 6C1.2 6.02 1.07 6.14 1.02 6.31C0.96 6.47 1.01 6.66 1.13 6.78L4.24 9.96L3.51 14.46C3.48 14.63 3.55 14.81 3.68 14.91C3.76 14.97 3.85 15 3.94 15C4.01 15 4.08 14.98 4.14 14.94L9.54 11.97C9.75 11.85 9.84 11.57 9.72 11.35C9.61 11.12 9.35 11.04 9.13 11.16L4.52 13.7L5.14 9.88C5.17 9.73 5.12 9.58 5.02 9.48L2.37 6.77L6.03 6.21C6.17 6.19 6.3 6.1 6.36 5.96L8 2.49L9.63 5.96C9.69 6.1 9.82 6.19 9.96 6.21L13.62 6.77L10.97 9.48C10.87 9.58 10.82 9.73 10.85 9.88L11.47 13.7L10.01 12.9C9.8 12.78 9.53 12.86 9.42 13.09C9.31 13.31 9.39 13.59 9.6 13.71L11.85 14.94C11.99 15.02 12.17 15.01 12.31 14.91C12.44 14.8 12.51 14.63 12.48 14.46L11.75 9.96L14.86 6.78C14.98 6.66 15.03 6.47 14.97 6.31Z" fill="#6C707E" fill-opacity="1.000000" fill-rule="nonzero"/>
		<path id="path" d="M14.62 6L10.31 5.34L8.39 1.25C8.31 1.09 8.16 1 8 1C7.83 1 7.68 1.09 7.6 1.25L5.68 5.34L1.37 6C1.2 6.02 1.07 6.14 1.02 6.31C0.96 6.47 1.01 6.66 1.13 6.78L4.24 9.96L3.51 14.46C3.48 14.63 3.55 14.81 3.68 14.91C3.76 14.97 3.85 15 3.94 15C4.01 15 4.08 14.98 4.14 14.94L9.54 11.97C9.75 11.85 9.84 11.57 9.72 11.35C9.61 11.12 9.35 11.04 9.13 11.16L4.52 13.7L5.14 9.88C5.17 9.73 5.12 9.58 5.02 9.48L2.37 6.77L6.03 6.21C6.17 6.19 6.3 6.1 6.36 5.96L8 2.49L9.63 5.96C9.69 6.1 9.82 6.19 9.96 6.21L13.62 6.77L10.97 9.48C10.87 9.58 10.82 9.73 10.85 9.88L11.47 13.7L10.01 12.9C9.8 12.78 9.53 12.86 9.42 13.09C9.31 13.31 9.39 13.59 9.6 13.71L11.85 14.94C11.99 15.02 12.17 15.01 12.31 14.91C12.44 14.8 12.51 14.63 12.48 14.46L11.75 9.96L14.86 6.78C14.98 6.66 15.03 6.47 14.97 6.31C14.92 6.14 14.79 6.02 14.62 6Z" stroke="#6C707E" stroke-opacity="1.000000" stroke-width="0.500000"/>
	</g>
</svg>
