<svg xmlns="http://www.w3.org/2000/svg" xmlns:xlink="http://www.w3.org/1999/xlink" width="15" height="15"
     viewBox="0 0 15 15" fill="none">
    <g opacity="1" transform="translate(0 0)">
        <mask id="bg-mask-0" fill="white">
            <use transform="translate(0 0)" xlink:href="#path_0"></use>
        </mask>
        <g mask="url(#bg-mask-0)">
            <path id="Vector" fill-rule="evenodd" style="fill:#868a91" opacity="1"
                  d="M8.34801 2.07487C8.10801 2.18487 7.918 2.35487 7.758 2.52487C7.60801 2.69487 7.438 2.90487 7.248 3.15487L2.80801 8.84487C2.79801 8.85487 2.77801 8.87487 2.76801 8.88487C2.56801 9.15487 2.39801 9.35487 2.28801 9.59487C2.18801 9.79487 2.11801 10.0049 2.06801 10.2249C2.01801 10.4849 2.01801 10.7549 2.01801 11.0849C2.01801 11.1049 2.01801 11.1249 2.01801 11.1449L2.01801 12.1949C2.01801 12.3449 2.01801 12.4949 2.03801 12.6249C2.04801 12.7649 2.07801 12.9649 2.19801 13.1549C2.34801 13.3849 2.56801 13.5649 2.83801 13.6549C3.04801 13.7149 3.24801 13.7049 3.38801 13.6849C3.51801 13.6649 3.66801 13.6249 3.80801 13.5949L4.828 13.3349C4.84801 13.3349 4.868 13.3249 4.88801 13.3249C5.208 13.2449 5.46801 13.1849 5.708 13.0649C5.90801 12.9749 6.098 12.8449 6.268 12.7049C6.468 12.5349 6.62801 12.3249 6.83801 12.0649C6.848 12.0449 6.85801 12.0249 6.868 12.0149L11.318 6.32487C11.498 6.08487 11.668 5.86487 11.788 5.68487C11.928 5.47487 12.038 5.25487 12.098 4.99487C12.168 4.60487 12.118 4.20487 11.948 3.84487C11.838 3.59487 11.668 3.41487 11.488 3.24487C11.328 3.09487 11.118 2.92487 10.868 2.74487L10.828 2.70487C10.588 2.52487 10.378 2.35487 10.188 2.23487C9.988 2.09487 9.76801 1.98487 9.498 1.92487C9.10801 1.85487 8.708 1.90487 8.34801 2.07487ZM8.788 3.48487C8.68801 3.59487 8.568 3.74487 8.388 3.97487L10.238 5.41487C10.418 5.18487 10.538 5.03487 10.618 4.90487C10.698 4.78487 10.708 4.73487 10.708 4.72487C10.728 4.62487 10.718 4.52487 10.678 4.43487C10.668 4.42487 10.648 4.38487 10.538 4.28487C10.418 4.17487 10.258 4.04487 9.988 3.83487C9.718 3.62487 9.54801 3.49487 9.418 3.40487C9.288 3.32487 9.248 3.31487 9.238 3.30487C9.138 3.29487 9.038 3.30487 8.948 3.34487C8.93801 3.34487 8.898 3.37487 8.788 3.48487ZM3.91801 9.70487C3.65801 10.0349 3.58801 10.1249 3.54801 10.2249C3.49801 10.3149 3.46801 10.4049 3.44801 10.5049C3.42801 10.6049 3.42801 10.7249 3.42801 11.1349L3.42801 12.1649C3.42801 12.1949 3.42801 12.2149 3.42801 12.2349C3.44801 12.2349 3.46801 12.2249 3.48801 12.2149L4.48801 11.9749C4.89801 11.8749 5.00801 11.8449 5.09801 11.7949C5.18801 11.7549 5.27801 11.6949 5.35801 11.6349C5.43801 11.5649 5.50801 11.4749 5.75801 11.1449L9.368 6.52487L7.52801 5.08487L3.91801 9.70487ZM3.15801 12.2949C3.15801 12.2949 3.15801 12.2949 3.15801 12.2949L3.15801 12.2949ZM3.43801 12.5149C3.43801 12.5149 3.43801 12.5149 3.43801 12.5149L3.43801 12.5149ZM7.418 13.1249C7.418 13.5149 7.738 13.8249 8.12801 13.8249L12.498 13.8249C12.888 13.8249 13.208 13.5149 13.208 13.1249C13.208 12.7349 12.888 12.4249 12.498 12.4249L8.12801 12.4249C7.738 12.4249 7.418 12.7349 7.418 13.1249Z"></path>
        </g>
    </g>
    <defs>
        <rect id="path_0" x="0" y="0" width="15" height="15" rx="0" ry="0"/>
    </defs>
</svg>