<svg xmlns="http://www.w3.org/2000/svg" xmlns:xlink="http://www.w3.org/1999/xlink" width="16" height="16" viewBox="0 0 24 24" fill="none">
<path   fill="#CED0D6"  d="M2.75 13.678M2.75 13.678Q2.75 8.4376 9.07766 2.42838C10.7155 0.873016 13.2845 0.873016 14.9223 2.42838Q21.25 8.4376 21.25 13.678Q21.25 17.2444 18.7785 19.8895Q16.1056 22.75 12 22.75Q7.89442 22.75 5.22154 19.8895Q2.75 17.2444 2.75 13.678L4.25 13.678Q4.25 16.6527 6.31754 18.8654Q8.54574 21.25 12 21.25Q15.4543 21.25 17.6825 18.8654Q19.75 16.6527 19.75 13.678Q19.75 9.08172 13.8894 3.51606C12.8305 2.51046 11.1695 2.51046 10.1106 3.51606Q4.25 9.08172 4.25 13.678L2.75 13.678Z">
</path>
<path    stroke="#CED0D6" stroke-width="1.5" stroke-linejoin="round" stroke-linecap="round"  d="M16 14C16 16.2091 14.2091 18 12 18">
</path>
</svg>
