<svg xmlns="http://www.w3.org/2000/svg" xmlns:xlink="http://www.w3.org/1999/xlink" width="16" height="15" viewBox="0 0 24 24" fill="none">
<path   fill="#CED0D6"  d="M19.8466 2.96336M19.8466 2.96336Q14.0069 1.96096 9.96504 5.08066Q5.17685 8.77643 5.82344 16.9408L5.07579 17L5.03189 16.2513L5.07579 17L5.03189 16.2513Q10.0775 15.9555 13.9963 13.1242L13.9963 13.1242Q15.4984 12.0389 15.5611 11.4983Q15.6352 10.8598 14.303 9.57678Q13.9911 9.27642 13.8508 9.1298C13.4385 8.69901 13.6695 7.98264 14.2558 7.87384C13.4385 8.69901 13.6695 7.98264 14.2558 7.87384Q19.5441 6.89246 19.2252 2.27585L20.7217 2.17249Q21.1327 8.12327 14.5295 9.34866L14.3926 8.61125L14.5295 9.34866L14.3926 8.61125L14.9345 8.0927Q15.0537 8.21721 15.3435 8.49635Q17.2108 10.2946 17.0511 11.6711Q16.9124 12.8679 14.8747 14.3401L14.8747 14.3401Q10.6016 17.4273 5.11969 17.7487C4.71215 17.7726 4.36036 17.4662 5.11969 17.7487C4.71215 17.7726 4.36036 17.4662 4.32813 17.0592Q3.61742 8.08523 9.04851 3.89323Q13.6116 0.371176 20.1003 1.48498L19.8466 2.96336ZM20.7217 2.17249L19.9734 2.22417L20.1003 1.48498L20.6811 1.58467L20.7217 2.17249Z">
</path>
<path    stroke="#CED0D6" stroke-width="1.5" stroke-linejoin="round" stroke-linecap="round"  d="M4 22C4 15.5 7.84848 12.1818 10.5 10">
</path>
</svg>
