<svg width="14" height="14" viewBox="0 0 12.75 12.75" fill="none" xmlns="http://www.w3.org/2000/svg" xmlns:xlink="http://www.w3.org/1999/xlink">
	<desc>
			Created with Pixso.
	</desc>
	<defs/>
	<rect id="rect" x="10.507751" y="3.424500" width="10.712247" height="1.837628" transform="rotate(135 10.507751 3.424500)" fill="#6e6e6e" fill-opacity="1.000000"/>
	<path id="path" d="M6.375 12.75C2.85419 12.75 0 9.89581 0 6.375C0 2.85419 2.85419 0 6.375 0C9.89581 0 12.75 2.85419 12.75 6.375C12.75 9.89581 9.89581 12.75 6.375 12.75ZM6.375 11.0114C8.93559 11.0114 11.0114 8.93561 11.0114 6.375C11.0114 3.81439 8.93559 1.73865 6.375 1.73865C3.81441 1.73865 1.73863 3.81439 1.73863 6.375C1.73863 8.93561 3.81441 11.0114 6.375 11.0114Z" fill="#6e6e6e" fill-opacity="1.000000" fill-rule="evenodd"/>
</svg>
