<svg width="16.000000" height="16.000000" viewBox="0 0 16 16" fill="none" xmlns="http://www.w3.org/2000/svg" xmlns:xlink="http://www.w3.org/1999/xlink">
	<desc>
			Created with Pixso.
	</desc>
	<defs>
		<clipPath id="clip17_6">
			<rect id="json_array" width="16.000000" height="16.000000" fill="white" fill-opacity="0"/>
		</clipPath>
	</defs>
	<g clip-path="url(#clip17_6)">
		<circle id="circle" cx="8.000000" cy="8.000000" r="6.500000" fill="#E7EFFD" fill-opacity="1.000000"/>
		<circle id="circle" cx="8.000000" cy="8.000000" r="6.500000" stroke="#3574F0" stroke-opacity="1.000000" stroke-width="1.000000"/>
		<path id="a" d="M9.38202 10.532Q9.44061 11.0125 9.53436 11.2L10.6711 11.2L10.6711 11.1063Q10.4484 10.5906 10.4484 9.71759L10.4484 6.79962Q10.4314 6.10246 10.0998 5.62273Q9.97439 5.44122 9.80389 5.29083Q9.79755 5.28524 9.79116 5.2797Q9.17161 4.74298 8.0871 4.74298Q7.40024 4.74298 6.82615 4.99741Q6.82234 4.9991 6.81854 5.00079Q6.24587 5.2566 5.90972 5.69413Q5.90709 5.69756 5.90448 5.70099Q5.61255 6.0843 5.57357 6.49181Q5.56757 6.55461 5.56757 6.61798L6.65741 6.61798Q6.65741 6.49216 6.69332 6.3776Q6.77614 6.11336 7.04999 5.909Q7.08965 5.8794 7.13122 5.85279Q7.50117 5.61603 8.02264 5.61603Q8.6726 5.61603 9.01201 5.94068Q9.01836 5.94676 9.0246 5.95294Q9.10001 6.02771 9.15869 6.11387Q9.36444 6.41598 9.36444 6.85822L9.36444 7.35626L8.30975 7.35626Q6.94452 7.35626 6.19159 7.90411Q5.87116 8.13726 5.6871 8.45053Q5.43866 8.87338 5.43866 9.4422Q5.43866 9.8692 5.60374 10.2181Q5.75354 10.5347 6.03925 10.7869Q6.15922 10.8929 6.29263 10.9776Q6.8271 11.3172 7.57733 11.3172Q8.03622 11.3172 8.43902 11.1669Q8.95687 10.9737 9.38202 10.532ZM8.1073 10.3374Q7.92506 10.3738 7.73553 10.3738Q7.27674 10.3738 6.9611 10.1613Q6.90991 10.1268 6.86249 10.0867Q6.75632 9.99704 6.68332 9.88562Q6.52264 9.64037 6.52264 9.28986Q6.52264 8.99234 6.65235 8.77073Q7.03097 8.12384 8.51483 8.12384L9.36444 8.12384L9.36444 9.42462Q9.32952 9.49646 9.28729 9.56371Q9.08154 9.8914 8.70233 10.1102Q8.41522 10.2758 8.1073 10.3374Z" fill="#3574F0" fill-opacity="1.000000" fill-rule="evenodd"/>
	</g>
</svg>
