<svg width="16.000000" height="16.000000" viewBox="0 0 16 16" fill="none" xmlns="http://www.w3.org/2000/svg" xmlns:xlink="http://www.w3.org/1999/xlink">
	<desc>
			Created with Pixso.
	</desc>
	<defs>
		<clipPath id="clip42_2">
			<rect id="label.svg" width="16.000000" height="16.000000" fill="white" fill-opacity="0"/>
		</clipPath>
	</defs>
	<g clip-path="url(#clip42_2)">
		<path id="path" d="M7.61 14.4C7.2 14.4 6.82 14.24 6.53 13.95L2.04 9.47C1.75 9.18 1.59 8.79 1.59 8.38C1.59 7.97 1.75 7.58 2.04 7.29L7.29 2.04C7.57 1.76 7.95 1.6 8.35 1.59L8.36 1.59C8.4 1.59 8.46 1.59 8.52 1.6L12.67 1.97C13.42 2.03 14 2.63 14.06 3.37L14.4 7.48C14.43 7.93 14.27 8.37 13.95 8.7L13.95 8.7L8.7 13.95C8.42 14.23 8.04 14.39 7.64 14.4C7.63 14.4 7.62 14.4 7.61 14.4ZM8.36 2.68C8.25 2.69 8.14 2.73 8.06 2.81L2.81 8.06C2.73 8.15 2.68 8.26 2.68 8.38C2.68 8.5 2.73 8.61 2.81 8.69L2.81 8.69L7.3 13.17C7.38 13.26 7.5 13.31 7.62 13.31C7.74 13.3 7.84 13.26 7.93 13.18L13.18 7.93C13.27 7.83 13.32 7.7 13.31 7.57L12.97 3.46C12.96 3.25 12.79 3.08 12.57 3.06L8.41 2.69C8.41 2.69 8.4 2.68 8.39 2.68L8.36 2.68Z" fill="#afb1b3" fill-opacity="1.000000" fill-rule="nonzero"/>
		<path id="path" d="M6.53 13.95L2.04 9.47C1.75 9.18 1.59 8.79 1.59 8.38C1.59 7.97 1.75 7.58 2.04 7.29L7.29 2.04C7.57 1.76 7.95 1.6 8.35 1.59L8.36 1.59C8.4 1.59 8.46 1.59 8.52 1.6L12.67 1.97C13.42 2.03 14 2.63 14.06 3.37L14.4 7.48C14.43 7.93 14.27 8.37 13.95 8.7L13.95 8.7L8.7 13.95C8.42 14.23 8.04 14.39 7.64 14.4C7.63 14.4 7.62 14.4 7.61 14.4C7.2 14.4 6.82 14.24 6.53 13.95ZM8.06 2.81L2.81 8.06C2.73 8.15 2.68 8.26 2.68 8.38C2.68 8.5 2.73 8.61 2.81 8.69L2.81 8.69L7.3 13.17C7.38 13.26 7.5 13.31 7.62 13.31C7.74 13.3 7.84 13.26 7.93 13.18L13.18 7.93C13.27 7.83 13.32 7.7 13.31 7.57L12.97 3.46C12.96 3.25 12.79 3.08 12.57 3.06L8.41 2.69C8.41 2.69 8.4 2.68 8.39 2.68L8.36 2.68C8.25 2.69 8.14 2.73 8.06 2.81Z" stroke="#afb1b3" stroke-opacity="1.000000" stroke-width="0.700000"/>
		<path id="path" d="M10 8C8.89 8 8 7.1 8 6C8 4.89 8.89 4 10 4C11.1 4 12 4.89 12 6C12 7.1 11.1 8 10 8ZM10 5.38C9.66 5.38 9.38 5.66 9.38 6C9.38 6.33 9.66 6.61 10 6.61C10.33 6.61 10.61 6.33 10.61 6C10.61 5.66 10.33 5.38 10 5.38Z" fill="#afb1b3" fill-opacity="1.000000" fill-rule="nonzero"/>
	</g>
</svg>
