<svg width="15.000000" height="15.000000" viewBox="0 0 16 16" fill="none" xmlns="http://www.w3.org/2000/svg" xmlns:xlink="http://www.w3.org/1999/xlink">
	<desc>
			Created with Pixso.
	</desc>
	<defs>
		<clipPath id="clip58_116">
			<rect id="eva--navigation-2-outline" width="16.000000" height="16.000000" fill="white" fill-opacity="0"/>
		</clipPath>
	</defs>
	<g clip-path="url(#clip58_116)">
		<path id="path" d="M9.11 14.66C8.77 14.64 8.52 14.46 8.46 14.13L7.33 8.66L1.86 7.54C1.53 7.47 1.35 7.26 1.33 6.92C1.3 6.58 1.46 6.36 1.78 6.25L12.45 2.7C12.72 2.58 12.96 2.63 13.17 2.83C13.37 3.03 13.43 3.27 13.33 3.54L9.78 14.21C9.67 14.53 9.45 14.68 9.11 14.66ZM4.58 6.73L8.04 7.44C8.33 7.49 8.5 7.66 8.56 7.95L9.26 11.42L11.61 4.38L4.58 6.73Z" fill="#C4C4C4" fill-opacity="1.000000" fill-rule="nonzero"/>
	</g>
</svg>
