<svg width="16.000000" height="16.000000" viewBox="0 0 16 16" fill="none" xmlns="http://www.w3.org/2000/svg" xmlns:xlink="http://www.w3.org/1999/xlink">
	<desc>
			Created with Pixso.
	</desc>
	<defs>
		<clipPath id="clip43_13">
			<rect id="note_dark" width="16.000000" height="16.000000" fill="white" fill-opacity="0"/>
		</clipPath>
	</defs>
	<g clip-path="url(#clip43_13)">
		<path id="path" d="M9.6 16C9.28 16 9.02 15.72 9.02 15.38L9.02 12.11C9.02 11.07 9.82 10.22 10.8 10.22L12.83 10.22L12.83 1.99C12.83 1.57 12.5 1.23 12.12 1.23L3.87 1.23C3.47 1.23 3.16 1.58 3.16 1.99L3.16 13.99C3.16 14.41 3.49 14.75 3.87 14.75L6.75 14.75C7.07 14.75 7.33 15.02 7.33 15.36C7.33 15.71 7.07 15.98 6.75 15.98L3.87 15.98C2.83 15.98 2 15.09 2 13.99L2 1.99C2 0.89 2.83 0 3.87 0L12.12 0C13.16 0 14 0.89 14 1.99L14 10.83C14 11.18 13.74 11.45 13.41 11.45L10.8 11.45C10.46 11.45 10.19 11.75 10.19 12.11L10.19 15.38C10.19 15.71 9.93 16 9.6 16Z" fill="#afb1b3" fill-opacity="1.000000" fill-rule="nonzero"/>
		<path id="path" d="M9.59 15.4C9.51 15.4 9.67 16.04 9.59 16C9.39 15.91 9.03 15.06 9.03 14.85L9.03 11.99C9.03 11.08 9.8 10.33 10.74 10.33L13.24 10.33C13.55 10.33 13.8 10.57 13.8 10.87C13.8 11.18 13.55 11.41 13.24 11.41L10.74 11.41C10.42 11.41 10.15 11.67 10.15 11.99L10.15 13.66L11.92 12.17C12.16 11.98 12.5 12 12.71 12.23C12.91 12.46 12.95 13.45 12.71 13.66L11.54 14.85L10.15 16C10.04 16.08 9.97 16 9.59 15.4ZM10.98 5.48L5.35 5.48C5.04 5.48 4.8 5.24 4.8 4.94C4.8 4.63 5.04 4 5.35 4L10.98 4C11.3 4 11.54 4.63 11.54 4.94C11.54 5.24 11.29 5.48 10.98 5.48ZM10.98 8.93L5.35 8.93C5.04 8.93 4.8 8.69 4.8 8.39C4.8 8.08 5.04 7.84 5.35 7.84L10.98 7.84C11.3 7.84 11.54 8.08 11.54 8.39C11.54 8.69 11.29 8.93 10.98 8.93ZM7.51 12.38L5.35 12.38C5.04 12.38 4.8 12.14 4.8 11.84C4.8 11.53 5.04 11.29 5.35 11.29L7.51 11.29C7.82 11.29 8.06 11.53 8.06 11.84C8.06 12.14 7.82 12.38 7.51 12.38Z" fill="#afb1b3" fill-opacity="1.000000" fill-rule="nonzero"/>
	</g>
</svg>
