<svg width="16.000000" height="16.000000" viewBox="0 0 16 16" fill="none" xmlns="http://www.w3.org/2000/svg" xmlns:xlink="http://www.w3.org/1999/xlink">
	<desc>
			Created with Pixso.
	</desc>
	<defs>
		<clipPath id="clip58_67">
			<rect id="material-symbols--crowdsource" width="16.000000" height="16.000000" fill="white" fill-opacity="0"/>
		</clipPath>
	</defs>
	<g clip-path="url(#clip58_67)">
		<path id="path" d="M11 6.5C10.72 6.5 10.48 6.4 10.29 6.2C10.09 6.01 10 5.77 10 5.5C9.99 5.22 10.09 4.98 10.29 4.79C10.48 4.59 10.72 4.5 11 4.5C11.27 4.49 11.51 4.59 11.7 4.79C11.9 4.98 12 5.22 12 5.5C11.99 5.77 11.9 6.01 11.7 6.2C11.51 6.4 11.27 6.5 11 6.5ZM5 6.5C4.72 6.5 4.48 6.4 4.29 6.2C4.09 6.01 4 5.77 4 5.5C3.99 5.22 4.09 4.98 4.29 4.79C4.48 4.59 4.72 4.5 5 4.5C5.27 4.49 5.51 4.59 5.7 4.79C5.9 4.98 6 5.22 6 5.5C5.99 5.77 5.9 6.01 5.7 6.2C5.51 6.4 5.27 6.5 5 6.5ZM8 8.33C7.72 8.33 7.48 8.23 7.29 8.04C7.09 7.84 7 7.61 7 7.33C6.99 7.05 7.09 6.81 7.29 6.62C7.48 6.43 7.72 6.33 8 6.33C8.27 6.33 8.51 6.42 8.7 6.62C8.9 6.82 9 7.05 9 7.33C8.99 7.6 8.9 7.84 8.7 8.04C8.51 8.23 8.27 8.33 8 8.33ZM8 4.66C7.72 4.66 7.48 4.56 7.29 4.37C7.09 4.18 7 3.94 7 3.66C6.99 3.38 7.09 3.15 7.29 2.95C7.48 2.76 7.72 2.66 8 2.66C8.27 2.66 8.51 2.76 8.7 2.95C8.9 3.15 9 3.39 9 3.66C8.99 3.94 8.9 4.17 8.7 4.37C8.51 4.57 8.27 4.66 8 4.66ZM8 13.33C7.77 13.33 7.55 13.31 7.32 13.28C7.09 13.25 6.87 13.2 6.66 13.15L6.66 10.76C6.66 10.37 6.79 10.04 7.05 9.75C7.31 9.47 7.63 9.33 8 9.33C8.36 9.33 8.68 9.47 8.94 9.75C9.2 10.04 9.33 10.37 9.33 10.76L9.33 13.15C9.12 13.2 8.9 13.25 8.67 13.28C8.44 13.31 8.22 13.33 8 13.33ZM5.66 12.8C5.44 12.71 5.23 12.61 5.02 12.5C4.81 12.38 4.62 12.26 4.43 12.13C4.12 11.91 3.87 11.62 3.69 11.26C3.5 10.91 3.41 10.53 3.41 10.13C3.41 9.84 3.38 9.57 3.32 9.32C3.26 9.07 3.15 8.83 3 8.61C2.88 8.47 2.68 8.25 2.37 7.95C2.06 7.66 1.78 7.38 1.53 7.13C1.41 7.01 1.34 6.85 1.34 6.66C1.34 6.47 1.41 6.32 1.53 6.2C1.65 6.07 1.81 6.01 2 6.01C2.18 6.01 2.34 6.07 2.46 6.2L5.01 8.61C5.23 8.81 5.4 9.05 5.5 9.32C5.61 9.59 5.66 9.87 5.66 10.16L5.66 12.8ZM10.33 12.8L10.33 10.16C10.33 9.87 10.38 9.59 10.5 9.31C10.61 9.03 10.77 8.8 10.98 8.61L13.53 6.2C13.66 6.07 13.82 6.01 14 6.01C14.19 6.01 14.34 6.07 14.46 6.2C14.58 6.32 14.64 6.47 14.65 6.66C14.65 6.85 14.58 7.01 14.46 7.13C14.21 7.38 13.93 7.66 13.62 7.95C13.31 8.23 13.11 8.46 13 8.61C12.84 8.83 12.73 9.07 12.67 9.32C12.61 9.57 12.58 9.84 12.58 10.13C12.58 10.53 12.49 10.91 12.3 11.27C12.12 11.63 11.87 11.92 11.55 12.15C11.37 12.27 11.18 12.38 10.97 12.5C10.77 12.61 10.55 12.71 10.33 12.8Z" fill="#C4C4C4" fill-opacity="1.000000" fill-rule="nonzero"/>
	</g>
</svg>
