<svg xmlns="http://www.w3.org/2000/svg" xmlns:xlink="http://www.w3.org/1999/xlink" width="16" height="16" viewBox="0 0 24 24" fill="none">
<circle cx="12" cy="12" r="10" stroke="#CED0D6" stroke-width="1.5" stroke-linejoin="round" stroke-linecap="round" >
</circle>
<path fill-rule="evenodd"  fill="#CED0D6"  d="M7.18145 15.0338L5.77532 20.3068L7.22468 20.6932L8.63081 15.4203Q8.9934 14.0605 9.19549 13.9053Q9.39758 13.75 10.8048 13.75L13.1952 13.75Q14.6024 13.75 14.8045 13.9053Q15.0066 14.0605 15.3692 15.4203L16.7712 20.6776C16.8509 21.0061 17.147 21.25 17.5 21.25C17.9142 21.25 18.25 20.9142 18.25 20.5C18.25 20.4272 18.2396 20.3568 18.2203 20.2902L16.8185 15.0338Q16.3246 13.1816 15.7184 12.7158Q15.1121 12.25 13.1952 12.25L10.8048 12.25Q8.88789 12.25 8.28164 12.7158Q7.67538 13.1816 7.18145 15.0338Z">
</path>
<path fill-rule="evenodd"  fill="#CED0D6"  d="M9.5 13.75C9.81432 13.75 10.0835 13.5566 10.195 13.2824L11.7651 9.65915Q11.9014 9.34464 12 9.13074Q12.0986 9.34464 12.2349 9.65915L13.805 13.2824C13.9165 13.5566 14.1857 13.75 14.5 13.75C14.9142 13.75 15.25 13.4142 15.25 13C15.25 12.8881 15.2255 12.782 15.1816 12.6866L13.6112 9.06274Q12.8257 7.25 12 7.25Q11.1743 7.25 10.3888 9.06274L8.81839 12.6867C8.77449 12.782 8.75 12.8881 8.75 13C8.75 13.4142 9.08579 13.75 9.5 13.75Z">
</path>
</svg>
