<svg width="16.000000" height="16.000000" viewBox="0 0 16 16" fill="none" xmlns="http://www.w3.org/2000/svg" xmlns:xlink="http://www.w3.org/1999/xlink">
	<desc>
			Created with Pixso.
	</desc>
	<defs>
		<clipPath id="clip59_150">
			<rect id="flowbite--pen-nib-outline (1)" width="16.000000" height="16.000000" fill="white" fill-opacity="0"/>
		</clipPath>
	</defs>
	<g clip-path="url(#clip59_150)">
		<path id="path" d="M8.5 4.78L11.21 7.49L9.86 11.09L3.53 13.33L2.66 12.46L4.9 6.13L8.5 4.78ZM11.59 7.86L8.13 4.4L9.87 2.66L13.33 6.12L11.59 7.86ZM3.83 13.15L3.83 13.18C3.54 13.46 3.1 13.46 2.81 13.18C2.53 12.89 2.53 12.45 2.81 12.16L2.84 12.16L3.83 13.15ZM6.42 8.58L6.42 8.56C6.7 8.27 7.15 8.27 7.43 8.56C7.72 8.84 7.72 9.29 7.43 9.57L7.41 9.57L6.42 8.58Z" fill="#000000" fill-opacity="0" fill-rule="nonzero"/>
		<path id="path" d="M3.32 12.67L6.93 9.06M11.21 7.49L9.86 11.09L3.53 13.33L2.66 12.46L4.9 6.13L8.5 4.78L11.21 7.49ZM8.13 4.4L9.87 2.66L13.33 6.12L11.59 7.86L8.13 4.4Z" stroke="#6C707E" stroke-opacity="1.000000" stroke-width="1.433333" stroke-linejoin="round" stroke-linecap="round"/>
	</g>
</svg>
