<svg width="16.000000" height="16.000000" viewBox="0 0 16 16" fill="none" xmlns="http://www.w3.org/2000/svg" xmlns:xlink="http://www.w3.org/1999/xlink">
	<desc>
			Created with Pixso.
	</desc>
	<defs>
		<clipPath id="clip8_45">
			<rect id="property_success_dark" width="16.000000" height="16.000000" fill="white" fill-opacity="0"/>
		</clipPath>
	</defs>
	<g clip-path="url(#clip8_45)">
		<circle id="circle" cx="8.000000" cy="8.000000" r="6.500000" fill="#25324D" fill-opacity="1.000000"/>
		<circle id="circle" cx="8.000000" cy="8.000000" r="6.500000" stroke="#3574F0" stroke-opacity="1.000000" stroke-width="1.000000"/>
		<path id="P" d="M8.58521 4.30054L5.84595 4.30054L5.84595 12L7.25586 12L7.25586 9.32788L8.62012 9.32788Q9.93872 9.32788 10.6316 8.70215Q10.6807 8.65764 10.7263 8.60982Q11.3245 7.98244 11.3245 6.78467Q11.3245 5.66365 10.7666 5.04851Q10.0883 4.30054 8.58521 4.30054ZM9.53589 7.82129Q9.17871 8.14893 8.45361 8.14893L7.25586 8.14893L7.25586 5.47681L8.42139 5.47681Q9.16797 5.47681 9.53052 5.80176Q9.55477 5.82334 9.57742 5.84649Q9.89575 6.17201 9.89575 6.80884Q9.89575 7.45517 9.57267 7.78565Q9.55478 7.80395 9.53589 7.82129Z" fill="#3574F0" fill-opacity="1.000000" fill-rule="evenodd"/>
	</g>
</svg>
