<svg width="16.000000" height="16.000000" viewBox="0 0 16 16" fill="none" xmlns="http://www.w3.org/2000/svg" xmlns:xlink="http://www.w3.org/1999/xlink">
	<desc>
			Created with Pixso.
	</desc>
	<defs>
		<clipPath id="clip59_154">
			<rect id="material-symbols--fiber-smart-record-outline-rounded" width="16.000000" height="16.000000" fill="white" fill-opacity="0"/>
		</clipPath>
	</defs>
	<g clip-path="url(#clip59_154)">
		<path id="path" d="M6 12.66C4.69 12.66 3.59 12.21 2.69 11.3C1.78 10.4 1.33 9.3 1.33 8C1.33 6.69 1.78 5.59 2.69 4.69C3.59 3.78 4.7 3.33 6 3.33C7.29 3.33 8.4 3.78 9.3 4.69C10.21 5.59 10.66 6.7 10.66 8C10.66 9.29 10.21 10.4 9.3 11.3C8.4 12.21 7.3 12.66 6 12.66ZM11.66 12.35C11.41 12.43 11.18 12.43 10.97 12.32C10.77 12.21 10.66 12.02 10.66 11.73C10.66 11.61 10.7 11.49 10.79 11.38C10.87 11.27 10.97 11.19 11.1 11.15C11.76 10.92 12.3 10.52 12.71 9.95C13.12 9.37 13.33 8.72 13.33 8C13.33 7.27 13.12 6.62 12.71 6.05C12.3 5.47 11.76 5.07 11.1 4.85C10.97 4.8 10.87 4.72 10.79 4.61C10.7 4.5 10.66 4.38 10.66 4.26C10.66 3.98 10.76 3.79 10.96 3.68C11.16 3.57 11.39 3.56 11.65 3.65C12.55 3.97 13.27 4.53 13.83 5.32C14.38 6.12 14.66 7.01 14.66 8C14.66 8.98 14.38 9.87 13.83 10.66C13.27 11.45 12.55 12.01 11.66 12.35ZM6 11.33C6.92 11.33 7.7 11 8.35 10.35C9 9.7 9.33 8.92 9.33 8C9.33 7.07 9 6.29 8.35 5.64C7.7 4.99 6.92 4.66 6 4.66C5.07 4.66 4.29 4.99 3.64 5.64C2.99 6.29 2.66 7.07 2.66 8C2.66 8.92 2.99 9.7 3.64 10.35C4.29 11 5.07 11.33 6 11.33Z" fill="#6C707E" fill-opacity="1.000000" fill-rule="nonzero"/>
	</g>
</svg>
