<svg width="14.000000" height="14.000000" viewBox="0 0 16 16" fill="none" xmlns="http://www.w3.org/2000/svg" xmlns:xlink="http://www.w3.org/1999/xlink">
	<desc>
			Created with Pixso.
	</desc>
	<defs>
		<clipPath id="clip58_106">
			<rect id="solar--structure-broken (1).svg" width="16.000000" height="16.000000" fill="white" fill-opacity="0"/>
		</clipPath>
	</defs>
	<g clip-path="url(#clip58_106)">
		<path id="path" d="M5.33 3.33C5.33 3.88 5.13 4.35 4.74 4.74C4.35 5.13 3.88 5.33 3.33 5.33C2.78 5.33 2.3 5.13 1.91 4.74C1.52 4.35 1.33 3.88 1.33 3.33C1.33 2.78 1.52 2.3 1.91 1.91C2.3 1.52 2.78 1.33 3.33 1.33C3.88 1.33 4.35 1.52 4.74 1.91C5.13 2.3 5.33 2.78 5.33 3.33ZM14.66 3.33C14.66 3.88 14.47 4.35 14.08 4.74C13.69 5.13 13.21 5.33 12.66 5.33C12.11 5.33 11.64 5.13 11.25 4.74C10.86 4.35 10.66 3.88 10.66 3.33C10.66 2.78 10.86 2.3 11.25 1.91C11.64 1.52 12.11 1.33 12.66 1.33C13.21 1.33 13.69 1.52 14.08 1.91C14.47 2.3 14.66 2.78 14.66 3.33ZM5.33 12.66C5.33 13.21 5.13 13.69 4.74 14.08C4.35 14.47 3.88 14.66 3.33 14.66C2.78 14.66 2.3 14.47 1.91 14.08C1.52 13.69 1.33 13.21 1.33 12.66C1.33 12.11 1.52 11.64 1.91 11.25C2.3 10.86 2.78 10.66 3.33 10.66C3.88 10.66 4.35 10.86 4.74 11.25C5.13 11.64 5.33 12.11 5.33 12.66ZM14.66 12.66C14.66 13.21 14.47 13.69 14.08 14.08C13.69 14.47 13.21 14.66 12.66 14.66C12.11 14.66 11.64 14.47 11.25 14.08C10.86 13.69 10.66 13.21 10.66 12.66C10.66 12.11 10.86 11.64 11.25 11.25C11.64 10.86 12.11 10.66 12.66 10.66C13.21 10.66 13.69 10.86 14.08 11.25C14.47 11.64 14.66 12.11 14.66 12.66Z" fill="#000000" fill-opacity="0" fill-rule="nonzero"/>
		<path id="path" d="M4.74 4.74C4.35 5.13 3.88 5.33 3.33 5.33C2.78 5.33 2.3 5.13 1.91 4.74C1.52 4.35 1.33 3.88 1.33 3.33C1.33 2.78 1.52 2.3 1.91 1.91C2.3 1.52 2.78 1.33 3.33 1.33C3.88 1.33 4.35 1.52 4.74 1.91C5.13 2.3 5.33 2.78 5.33 3.33C5.33 3.88 5.13 4.35 4.74 4.74ZM14.08 4.74C13.69 5.13 13.21 5.33 12.66 5.33C12.11 5.33 11.64 5.13 11.25 4.74C10.86 4.35 10.66 3.88 10.66 3.33C10.66 2.78 10.86 2.3 11.25 1.91C11.64 1.52 12.11 1.33 12.66 1.33C13.21 1.33 13.69 1.52 14.08 1.91C14.47 2.3 14.66 2.78 14.66 3.33C14.66 3.88 14.47 4.35 14.08 4.74ZM4.74 14.08C4.35 14.47 3.88 14.66 3.33 14.66C2.78 14.66 2.3 14.47 1.91 14.08C1.52 13.69 1.33 13.21 1.33 12.66C1.33 12.11 1.52 11.64 1.91 11.25C2.3 10.86 2.78 10.66 3.33 10.66C3.88 10.66 4.35 10.86 4.74 11.25C5.13 11.64 5.33 12.11 5.33 12.66C5.33 13.21 5.13 13.69 4.74 14.08ZM14.08 14.08C13.69 14.47 13.21 14.66 12.66 14.66C12.11 14.66 11.64 14.47 11.25 14.08C10.86 13.69 10.66 13.21 10.66 12.66C10.66 12.11 10.86 11.64 11.25 11.25C11.64 10.86 12.11 10.66 12.66 10.66C13.21 10.66 13.69 10.86 14.08 11.25C14.47 11.64 14.66 12.11 14.66 12.66C14.66 13.21 14.47 13.69 14.08 14.08Z" stroke="#C4C4C4" stroke-opacity="1.000000" stroke-width="1.466667"/>
		<path id="path" d="M5.35 4.04L5.33 4.06C4.92 4.06 4.59 3.74 4.59 3.33C4.59 2.92 4.92 2.6 5.33 2.6L5.35 2.62L5.35 4.04ZM10.64 2.62L10.66 2.6C11.07 2.6 11.4 2.92 11.4 3.33C11.4 3.74 11.07 4.06 10.66 4.06L10.64 4.04L10.64 2.62ZM13.38 10.64L13.4 10.66C13.4 11.07 13.07 11.4 12.66 11.4C12.25 11.4 11.93 11.07 11.93 10.66L11.95 10.64L13.38 10.64ZM11.95 8.68L11.93 8.66C11.93 8.25 12.25 7.93 12.66 7.93C13.07 7.93 13.4 8.25 13.4 8.66L13.38 8.68L11.95 8.68ZM11.95 5.35L11.93 5.33C11.93 4.92 12.25 4.6 12.66 4.6C13.07 4.6 13.4 4.92 13.4 5.33L13.38 5.35L11.95 5.35ZM13.38 5.98L13.4 6C13.4 6.41 13.07 6.73 12.66 6.73C12.25 6.73 11.93 6.41 11.93 6L11.95 5.98L13.38 5.98ZM10.64 11.95L10.66 11.93C11.07 11.93 11.4 12.25 11.4 12.66C11.4 13.07 11.07 13.4 10.66 13.4L10.64 13.38L10.64 11.95ZM8.68 13.38L8.66 13.4C8.25 13.4 7.93 13.07 7.93 12.66C7.93 12.25 8.25 11.93 8.66 11.93L8.68 11.95L8.68 13.38ZM6.64 11.95L6.66 11.93C7.07 11.93 7.39 12.25 7.39 12.66C7.39 13.07 7.07 13.4 6.66 13.4L6.64 13.38L6.64 11.95ZM5.35 13.38L5.33 13.4C4.92 13.4 4.59 13.07 4.59 12.66C4.59 12.25 4.92 11.93 5.33 11.93L5.35 11.95L5.35 13.38ZM4.04 10.64L4.06 10.66C4.06 11.07 3.74 11.4 3.33 11.4C2.92 11.4 2.59 11.07 2.59 10.66L2.62 10.64L4.04 10.64ZM2.62 5.35L2.59 5.33C2.59 4.92 2.92 4.6 3.33 4.6C3.74 4.6 4.06 4.92 4.06 5.33L4.04 5.35L2.62 5.35Z" fill="#000000" fill-opacity="0" fill-rule="nonzero"/>
		<path id="path" d="M5.33 3.33L10.66 3.33M12.66 10.66L12.66 8.66M12.66 5.33L12.66 6M10.66 12.66L8.66 12.66M6.66 12.66L5.33 12.66M3.33 10.66L3.33 5.33" stroke="#C4C4C4" stroke-opacity="1.000000" stroke-width="1.466667"/>
	</g>
</svg>
