<svg width="16.000000" height="16.000000" viewBox="0 0 16 16" fill="none" xmlns="http://www.w3.org/2000/svg" xmlns:xlink="http://www.w3.org/1999/xlink">
	<desc>
			Created with Pixso.
	</desc>
	<defs>
		<clipPath id="clip59_164">
			<rect id="solar--transfer-horizontal-bold" width="16.000000" height="16.000000" fill="white" fill-opacity="0"/>
		</clipPath>
	</defs>
	<g clip-path="url(#clip59_164)">
		<path id="path" d="M6.83 2.66C6.83 2.43 6.72 2.28 6.51 2.2C6.3 2.11 6.11 2.16 5.96 2.32L2.29 6.32C2.15 6.48 2.12 6.66 2.2 6.86C2.29 7.06 2.44 7.16 2.66 7.16L13.33 7.16C13.66 7.16 13.83 7 13.83 6.66C13.83 6.33 13.66 6.16 13.33 6.16L6.83 6.16L6.83 2.66ZM9.16 13.33L9.16 9.83L2.66 9.83C2.33 9.83 2.16 9.66 2.16 9.33C2.16 9 2.33 8.83 2.66 8.83L13.33 8.83C13.55 8.83 13.7 8.93 13.79 9.13C13.87 9.33 13.84 9.51 13.7 9.67L10.03 13.67C9.88 13.83 9.69 13.88 9.48 13.79C9.27 13.71 9.16 13.56 9.16 13.33Z" fill="#6C707E" fill-opacity="1.000000" fill-rule="nonzero"/>
	</g>
</svg>
