<svg width="15.000000" height="15.000000" viewBox="0 0 16 16" fill="none" xmlns="http://www.w3.org/2000/svg" xmlns:xlink="http://www.w3.org/1999/xlink">
	<desc>
			Created with Pixso.
	</desc>
	<defs/>
	<mask id="mask10_11" mask-type="alpha" maskUnits="userSpaceOnUse" x="0.000000" y="0.000000" width="16.000000" height="16.000000">
		<path id="路径" d="M0 0L16 0L16 16L0 16L0 0Z" fill="#C4C4C4" fill-opacity="1.000000" fill-rule="evenodd"/>
	</mask>
	<g mask="url(#mask10_11)">
		<path id="路径" d="M4.5 7.1665L4.5 7.6665C4.5 7.84326 4.5 8.01001 4.5 8.1665L4 8.1665L4 7.1665L4.5 7.1665ZM4.5 7.1665L4.5 5.33325L3.5 5.33325L3.5 7.6665C3.5 8.64771 3.50293 9.323 3.50879 9.69263C3.51855 10.2803 3.54102 10.7424 3.57617 11.0786C3.61719 11.4741 3.68457 11.7983 3.7793 12.0518C3.86035 12.2693 3.9707 12.4626 4.11035 12.6318L4.11035 12.6318C4.14941 12.6787 4.19043 12.7236 4.2334 12.7668C4.26953 12.8035 4.30762 12.8386 4.34668 12.8721L4.34668 12.8721C4.51172 13.0134 4.7002 13.1274 4.91113 13.2146C5.1416 13.3096 5.41797 13.3789 5.73926 13.4221C6.00195 13.4575 6.33594 13.4805 6.74023 13.4905C6.98633 13.4968 7.40625 13.5 8 13.5L8.66699 13.5L8.66699 12.5L8 12.5C7.41504 12.5 7.00293 12.4968 6.76562 12.491C6.39746 12.4817 6.09961 12.4617 5.87305 12.4312C5.63672 12.3992 5.44336 12.3523 5.29297 12.2903C5.1543 12.2332 5.03711 12.1562 4.94043 12.0598C4.84375 11.9631 4.76855 11.844 4.71582 11.7019C4.65137 11.5286 4.60254 11.2866 4.57031 10.9761C4.53906 10.6685 4.51855 10.2349 4.50879 9.67578C4.50391 9.37793 4.50098 8.87476 4.5 8.1665L7.66699 8.1665L7.66699 7.1665L4.5 7.1665Z" clip-rule="evenodd" fill="#afb1b3" fill-opacity="1.000000" fill-rule="evenodd"/>
	</g>
	<g mask="url(#mask10_11)">
		<path id="路径" d="M8.66699 13C8.66699 13.7866 8.66699 14.1799 8.90039 14.4199C9.13379 14.6665 9.51367 14.6665 10.2666 14.6665L11.0674 14.6665C11.8203 14.6665 12.2002 14.6665 12.4336 14.4199C12.667 14.1799 12.667 13.7866 12.667 13C12.667 12.2131 12.667 11.8198 12.4336 11.5798C12.2002 11.3333 11.8203 11.3333 11.0674 11.3333L10.2666 11.3333C9.51367 11.3333 9.13379 11.3333 8.90039 11.5798C8.66699 11.8198 8.66699 12.2131 8.66699 13Z" stroke="#afb1b3" stroke-opacity="1.000000" stroke-width="1.500000" stroke-dasharray="0 0"/>
	</g>
	<g mask="url(#mask10_11)">
		<path id="路径" d="M2.85938 5.33325L5.13965 5.33325C6.52637 5.33325 6.66602 4.59326 6.66602 3.33325C6.66602 2.07324 6.52637 1.33325 5.13965 1.33325L2.85938 1.33325C1.47266 1.33325 1.33301 2.07324 1.33301 3.33325C1.33301 4.59326 1.47266 5.33325 2.85938 5.33325Z" stroke="#afb1b3" stroke-opacity="1.000000" stroke-width="1.500000" stroke-dasharray="0 0"/>
	</g>
	<g mask="url(#mask10_11)">
		<path id="路径" d="M14.5469 4.19336C14.4873 4.09326 14.3936 4 14.2002 3.7998C14 3.60669 13.9072 3.51318 13.8066 3.45337C13.5332 3.29321 13.1934 3.29321 12.9199 3.45337C12.8135 3.51318 12.7207 3.60669 12.5273 3.7998L10.6875 5.63989C10.6201 5.69995 10.5674 5.7666 10.5068 5.83325C10.207 6.21313 10.1875 6.73999 10.0869 7.21313C10 7.61328 9.9541 7.81982 10.0674 7.93335C10.1807 8.04663 10.3867 8 10.7871 7.91333C11.3008 7.80664 11.8799 7.79321 12.2666 7.40649L14.2002 5.47314C14.3936 5.28003 14.4873 5.18652 14.5469 5.07983C14.707 4.80664 14.707 4.46655 14.5469 4.19336Z" stroke="#afb1b3" stroke-opacity="1.000000" stroke-width="1.500000" stroke-dasharray="0 0"/>
	</g>
</svg>
